<svg xmlns="http://www.w3.org/2000/svg" width="200" height="200" viewBox="0 0 200 200">
  <rect width="200" height="200" fill="#1a1917"/>
  <rect x="12" y="12" width="176" height="176" rx="8" fill="none" stroke="#3a3835" stroke-width="1.5" stroke-dasharray="6 4"/>
  <!-- 左上角定位块 -->
  <rect x="28" y="28" width="44" height="44" rx="4" fill="none" stroke="#4a4845" stroke-width="2"/>
  <rect x="36" y="36" width="28" height="28" rx="2" fill="#4a4845"/>
  <!-- 右上角定位块 -->
  <rect x="128" y="28" width="44" height="44" rx="4" fill="none" stroke="#4a4845" stroke-width="2"/>
  <rect x="136" y="36" width="28" height="28" rx="2" fill="#4a4845"/>
  <!-- 左下角定位块 -->
  <rect x="28" y="128" width="44" height="44" rx="4" fill="none" stroke="#4a4845" stroke-width="2"/>
  <rect x="36" y="136" width="28" height="28" rx="2" fill="#4a4845"/>
  <!-- 中间随机小方块模拟二维码纹理 -->
  <rect x="88" y="32" width="8" height="8" fill="#3a3835"/>
  <rect x="100" y="32" width="8" height="8" fill="#3a3835"/>
  <rect x="88" y="44" width="8" height="8" fill="#3a3835"/>
  <rect x="108" y="44" width="8" height="8" fill="#3a3835"/>
  <rect x="96" y="56" width="8" height="8" fill="#3a3835"/>
  <rect x="32" y="88" width="8" height="8" fill="#3a3835"/>
  <rect x="44" y="96" width="8" height="8" fill="#3a3835"/>
  <rect x="56" y="88" width="8" height="8" fill="#3a3835"/>
  <rect x="32" y="104" width="8" height="8" fill="#3a3835"/>
  <rect x="88" y="88" width="8" height="8" fill="#3a3835"/>
  <rect x="104" y="88" width="8" height="8" fill="#3a3835"/>
  <rect x="96" y="96" width="8" height="8" fill="#3a3835"/>
  <rect x="112" y="96" width="8" height="8" fill="#3a3835"/>
  <rect x="88" y="104" width="8" height="8" fill="#3a3835"/>
  <rect x="108" y="108" width="8" height="8" fill="#3a3835"/>
  <rect x="136" y="88" width="8" height="8" fill="#3a3835"/>
  <rect x="152" y="96" width="8" height="8" fill="#3a3835"/>
  <rect x="140" y="104" width="8" height="8" fill="#3a3835"/>
  <rect x="160" y="88" width="8" height="8" fill="#3a3835"/>
  <rect x="88" y="136" width="8" height="8" fill="#3a3835"/>
  <rect x="104" y="144" width="8" height="8" fill="#3a3835"/>
  <rect x="96" y="152" width="8" height="8" fill="#3a3835"/>
  <rect x="112" y="136" width="8" height="8" fill="#3a3835"/>
  <rect x="136" y="136" width="8" height="8" fill="#3a3835"/>
  <rect x="148" y="144" width="8" height="8" fill="#3a3835"/>
  <rect x="160" y="136" width="8" height="8" fill="#3a3835"/>
  <rect x="140" y="152" width="8" height="8" fill="#3a3835"/>
  <!-- 中心文字 -->
  <text x="100" y="104" font-family="sans-serif" font-size="14" fill="#8a8680" text-anchor="middle" dominant-baseline="middle">二维码</text>
  <text x="100" y="120" font-family="sans-serif" font-size="9" fill="#4a4845" text-anchor="middle">即将上线</text>
</svg>
